<svg width="106" height="29" viewBox="0 0 106 29" fill="none" xmlns="http://www.w3.org/2000/svg">
<g clip-path="url(#clip0_316_1245)">
<path d="M23.4453 8.1904C23.4453 12.2427 20.1539 15.5278 16.0937 15.5278C12.0336 15.5278 8.74222 12.2427 8.74222 8.1904C8.74222 4.13808 12.0336 0.853027 16.0937 0.853027C20.1539 0.853027 23.4453 4.13808 23.4453 8.1904Z" fill="black"/>
<path d="M31.3623 17.7854V19.4787L28.5348 28.5093H3.65272L0.82521 19.4787L0.825195 17.7854L7.04573 15.5278L7.93762 15.1717C8.04174 15.2928 8.14852 15.4115 8.25787 15.5278C10.218 17.6122 13.0035 18.9143 16.0937 18.9143C19.184 18.9143 21.9695 17.6122 23.9296 15.5278C24.039 15.4115 24.1457 15.2928 24.2499 15.1717L25.1418 15.5278L31.3623 17.7854Z" fill="black"/>
<path d="M97.1953 7.61423C97.1953 11.6665 93.9039 14.9516 89.8437 14.9516C85.7836 14.9516 82.4922 11.6665 82.4922 7.61423C82.4922 3.56191 85.7836 0.276855 89.8437 0.276855C93.9039 0.276855 97.1953 3.56191 97.1953 7.61423Z" fill="black"/>
<path d="M74.5752 18.9025L74.5752 17.2093L80.7957 14.9516H82.0079L86.2622 21.4926V27.9331H77.4027L74.5752 18.9025Z" fill="black"/>
<path d="M105.112 18.9025V17.2093L98.8918 14.9516L97.9999 14.5955L93.0483 21.3032V27.9331H102.285L105.112 18.9025Z" fill="black"/>
<path d="M88.5242 20.7349L87.3932 17.8935L87.9587 17.3252H91.3518L91.9173 17.8935L90.7863 20.7349V26.4177L91.3518 27.9331H87.9587L88.5242 26.4177V20.7349Z" fill="black"/>
<path d="M56.1377 10.0718L62.4756 16.6978L56.1377 23.3237" stroke="black" stroke-width="2.30469"/>
<path d="M47.4951 10.0718L41.1572 16.6978L47.4951 23.3237" stroke="black" stroke-width="2.30469"/>
</g>
<defs>
<clipPath id="clip0_316_1245">
<rect width="104.287" height="28.2324" fill="white" transform="translate(0.825195 0.276855)"/>
</clipPath>
</defs>
</svg>
