<svg width="106" height="39" viewBox="0 0 106 39" fill="none" xmlns="http://www.w3.org/2000/svg">
<path d="M23.5078 18.5529C23.5078 22.6053 20.2164 25.8903 16.1562 25.8903C12.0961 25.8903 8.80472 22.6053 8.80472 18.5529C8.80472 14.5006 12.0961 11.2156 16.1562 11.2156C20.2164 11.2156 23.5078 14.5006 23.5078 18.5529Z" fill="black"/>
<path d="M31.4248 28.148V29.8412L28.5973 38.8718H3.71522L0.88771 29.8412L0.887695 28.148L7.10823 25.8903L8.00012 25.5342C8.10424 25.6553 8.21102 25.774 8.32037 25.8903C10.2805 27.9747 13.066 29.2768 16.1562 29.2768C19.2465 29.2768 22.032 27.9747 23.9921 25.8903C24.1015 25.774 24.2082 25.6553 24.3124 25.5342L25.2043 25.8903L31.4248 28.148Z" fill="black"/>
<path d="M97.2578 17.9768C97.2578 22.0291 93.9664 25.3141 89.9062 25.3141C85.8461 25.3141 82.5547 22.0291 82.5547 17.9768C82.5547 13.9245 85.8461 10.6394 89.9062 10.6394C93.9664 10.6394 97.2578 13.9245 97.2578 17.9768Z" fill="black"/>
<path d="M74.6377 29.265L74.6377 27.5718L80.8582 25.3141H82.0704L86.3247 31.8552V38.2957H77.4652L74.6377 29.265Z" fill="black"/>
<path d="M105.175 29.265V27.5718L98.9543 25.3141L98.0624 24.9581L93.1108 31.6657V38.2957H102.347L105.175 29.265Z" fill="black"/>
<path d="M88.5867 31.0975L87.4557 28.2561L88.0212 27.6878H91.4143L91.9798 28.2561L90.8488 31.0975V36.7802L91.4143 38.2957H88.0212L88.5867 36.7802V31.0975Z" fill="black"/>
<path fill-rule="evenodd" clip-rule="evenodd" d="M58.751 7.85938C58.751 3.66695 62.1496 0.268311 66.342 0.268311H69.6982C75.7442 0.268311 80.6455 5.16957 80.6455 11.2156V15.4504V18.1296L76.7465 15.4504H66.342C62.1496 15.4504 58.751 12.0518 58.751 7.85938ZM63.2499 5.62671V4.13827H71.9477V5.62671H63.2499ZM63.2499 8.90129V7.11515H73.7472V8.90129H63.2499ZM63.2499 11.8782V10.3897H77.0464V11.8782H63.2499Z" fill="black"/>
</svg>
