<svg width="62" height="38" viewBox="0 0 62 38" fill="none" xmlns="http://www.w3.org/2000/svg">
<path d="M5.96777 30.7925H5.67969V31.0806V32.2329C5.67969 32.5402 5.92251 32.7502 6.13573 32.8849C6.3693 33.0325 6.6873 33.1649 7.04389 33.2884C7.61537 33.4862 8.33881 33.6781 9.07948 33.8746C9.26528 33.9239 9.45216 33.9735 9.638 34.0235C10.5764 34.2762 11.4914 34.5411 12.1697 34.8454C12.5096 34.9979 12.7713 35.1523 12.944 35.307C13.1165 35.4615 13.1699 35.5877 13.1699 35.6899C13.1699 36.1724 12.9258 36.679 12.5341 37.0707C12.1424 37.4624 11.6358 37.7065 11.1533 37.7065H5.3916C5.1707 37.7065 4.89594 37.6218 4.59523 37.4547C4.29806 37.2896 3.99499 37.0549 3.72275 36.7826C3.45051 36.5104 3.21575 36.2073 3.05066 35.9101C2.8836 35.6094 2.79883 35.3347 2.79883 35.1138V18.981C2.79883 17.8 3.59249 16.6493 4.4612 15.5996C4.62616 15.4002 4.79604 15.202 4.96129 15.0091C5.21507 14.7129 5.45795 14.4294 5.65541 14.1743C5.82151 13.9598 5.96799 13.7501 6.07378 13.5505C6.17788 13.3541 6.25586 13.1431 6.25586 12.9312C6.25586 12.6644 6.09169 12.4484 5.915 12.2862C5.73153 12.1178 5.48218 11.9594 5.20472 11.8091C4.71165 11.542 4.07551 11.2726 3.44032 11.0036C3.35997 10.9695 3.27963 10.9355 3.1996 10.9015C2.47614 10.594 1.7754 10.2867 1.25605 9.97072C0.996305 9.81271 0.797141 9.66145 0.665848 9.51843C0.5337 9.37448 0.494141 9.26554 0.494141 9.18604C0.494141 8.76803 0.654343 8.44566 0.930603 8.18454C1.21482 7.91589 1.6278 7.70784 2.12799 7.55261C3.12916 7.2419 4.38962 7.16943 5.3916 7.16943C6.44976 7.16943 7.39566 7.69986 8.17504 8.26668C8.43437 8.45528 8.66375 8.63884 8.87394 8.80705C8.98238 8.89383 9.08572 8.97653 9.18543 9.05372C9.32663 9.16304 9.46232 9.26244 9.58573 9.33518C9.69945 9.40222 9.84671 9.47412 10.001 9.47412C10.1501 9.47412 10.2976 9.40903 10.4202 9.33984C10.5514 9.26571 10.696 9.16218 10.8489 9.03913C11.1554 8.79251 11.5223 8.44576 11.9253 8.0382C12.7313 7.22313 13.7072 6.13884 14.6767 5.06161L14.6804 5.05747C15.6543 3.97542 16.6215 2.9008 17.417 2.09643C17.8152 1.69374 18.164 1.36529 18.4449 1.13927C18.5857 1.026 18.7028 0.943851 18.7957 0.891379C18.8819 0.842708 18.9233 0.833555 18.9308 0.831897C18.9322 0.831599 18.9324 0.831543 18.9316 0.831543H31.0312H43.1309C43.1301 0.831543 43.1303 0.831599 43.1317 0.831897C43.1392 0.833554 43.1805 0.842705 43.2668 0.891379C43.3597 0.943851 43.4768 1.026 43.6176 1.13927C43.8985 1.36529 44.2473 1.69374 44.6455 2.09643C45.441 2.9008 46.4082 3.97542 47.3821 5.05747L47.3858 5.06161C48.3553 6.13884 49.3312 7.22313 50.1372 8.0382C50.5402 8.44576 50.9071 8.79251 51.2136 9.03913C51.3665 9.16218 51.5111 9.26571 51.6423 9.33984C51.7649 9.40903 51.9124 9.47412 52.0615 9.47412C52.2158 9.47412 52.363 9.40222 52.4768 9.33518C52.6002 9.26244 52.7359 9.16304 52.8771 9.05372C52.9768 8.97653 53.0801 8.89384 53.1885 8.80706C53.3987 8.63885 53.6281 8.45529 53.8875 8.26668C54.6668 7.69986 55.6127 7.16943 56.6709 7.16943C57.6729 7.16943 58.9333 7.2419 59.9345 7.55261C60.4347 7.70784 60.8477 7.91589 61.1319 8.18454C61.4082 8.44566 61.5684 8.76803 61.5684 9.18604C61.5684 9.26554 61.5288 9.37448 61.3967 9.51843C61.2654 9.66145 61.0662 9.81271 60.8065 9.97072C60.2871 10.2867 59.5864 10.594 58.8629 10.9015C58.7829 10.9355 58.7025 10.9695 58.6222 11.0036C57.987 11.2726 57.3508 11.542 56.8578 11.8091C56.5803 11.9594 56.331 12.1178 56.1475 12.2862C55.9708 12.4484 55.8066 12.6644 55.8066 12.9312C55.8066 13.1431 55.8846 13.3541 55.9887 13.5505C56.0945 13.7501 56.241 13.9598 56.4071 14.1743C56.6046 14.4294 56.8475 14.7129 57.1012 15.0091C57.2665 15.202 57.4363 15.4002 57.6013 15.5996C58.47 16.6493 59.2637 17.8 59.2637 18.981V35.1138C59.2637 35.3347 59.1789 35.6094 59.0118 35.9101C58.8467 36.2073 58.612 36.5104 58.3397 36.7826C58.0675 37.0549 57.7644 37.2896 57.4673 37.4547C57.1666 37.6218 56.8918 37.7065 56.6709 37.7065H50.9092C50.4267 37.7065 49.9201 37.4624 49.5284 37.0707C49.1367 36.679 48.8926 36.1724 48.8926 35.6899C48.8926 35.5877 48.946 35.4615 49.1185 35.307C49.2912 35.1523 49.5529 34.9979 49.8928 34.8454C50.5711 34.5411 51.4861 34.2762 52.4245 34.0235C52.6103 33.9735 52.7972 33.9239 52.983 33.8746C53.7237 33.6781 54.4471 33.4862 55.0186 33.2884C55.3752 33.1649 55.6932 33.0325 55.9268 32.8849C56.14 32.7502 56.3828 32.5402 56.3828 32.2329V31.0806V30.7925H56.0947H55.5186C55.3687 30.7925 55.202 30.8288 55.036 30.8792C54.8665 30.9306 54.6794 31.0024 54.4834 31.0854C54.1488 31.2271 53.7709 31.409 53.389 31.5929C53.3251 31.6236 53.2611 31.6544 53.1972 31.6851C52.7466 31.9014 52.2968 32.1129 51.89 32.2703C51.4752 32.4309 51.1399 32.521 50.9092 32.521H31.0312H11.1533C10.9226 32.521 10.5873 32.4309 10.1725 32.2703C9.76569 32.1129 9.31593 31.9014 8.86526 31.6851C8.80135 31.6544 8.73735 31.6236 8.67347 31.5929C8.29162 31.409 7.91371 31.2271 7.57907 31.0854C7.38312 31.0024 7.19603 30.9306 7.02648 30.8792C6.86049 30.8288 6.6938 30.7925 6.54395 30.7925H5.96777ZM20.3721 3.13623H20.2527L20.1684 3.22061L12.6781 10.7108L12.5938 10.7952V10.9146V12.0669V12.355H12.8818H31.0312H49.1807H49.4688V12.0669V10.9146V10.7952L49.3844 10.7108L41.8941 3.22061L41.8098 3.13623H41.6904H31.0312H20.3721ZM41.7974 25.5863L41.8133 25.58L41.8284 25.5718C43.5149 24.6519 44.414 22.8293 44.6754 21.261C44.8063 20.4756 44.7829 19.7237 44.5977 19.1531C44.4144 18.5882 44.0343 18.1167 43.4189 18.1167H31.0312H18.6436C18.0282 18.1167 17.6481 18.5882 17.4648 19.1531C17.2796 19.7237 17.2562 20.4756 17.3871 21.261C17.6485 22.8293 18.5476 24.6519 20.2341 25.5718L20.2492 25.58L20.2651 25.5863C21.757 26.1831 22.6692 26.1831 24.3914 26.1831H24.4053H31.0312H37.6572H37.6711C39.3933 26.1831 40.3055 26.1831 41.7974 25.5863ZM14.6309 25.03L14.8984 25.0109V24.7427C14.8984 23.6634 14.4397 22.5325 14.0015 21.6925C13.7801 21.2682 13.5589 20.9088 13.393 20.6552C13.3099 20.5283 13.2405 20.4276 13.1915 20.3582C13.167 20.3235 13.1475 20.2966 13.1341 20.2781L13.1184 20.2568L13.1173 20.2552C12.796 19.777 12.1303 19.1962 11.3406 18.6456C10.5385 18.0865 9.5764 17.5365 8.63864 17.132C7.70953 16.7312 6.76965 16.4578 6.02386 16.4874C5.64734 16.5024 5.29238 16.5957 5.01679 16.8176C4.73568 17.044 4.57228 17.3758 4.52931 17.7946L4.52905 17.7966L4.52637 17.8167C4.52406 17.8343 4.52076 17.8598 4.5167 17.8926C4.50858 17.9583 4.49738 18.0529 4.48497 18.17C4.46017 18.4041 4.43038 18.729 4.4105 19.0924C4.37135 19.808 4.36792 20.7122 4.53669 21.3584C4.59568 21.5843 4.76015 21.8 4.95867 21.9952C5.16365 22.1968 5.43472 22.4051 5.75333 22.6128C6.39137 23.0287 7.2462 23.4588 8.21213 23.8393C10.1392 24.5983 12.5551 25.1783 14.6309 25.03ZM47.1641 24.7427V25.0109L47.4316 25.03C49.5074 25.1783 51.9233 24.5983 53.8504 23.8393C54.8163 23.4588 55.6711 23.0287 56.3092 22.6128C56.6278 22.4051 56.8988 22.1968 57.1038 21.9952C57.3024 21.8 57.4668 21.5843 57.5258 21.3584C57.6946 20.7122 57.6911 19.808 57.652 19.0924C57.6321 18.729 57.6023 18.4041 57.5775 18.17C57.5651 18.0529 57.5539 17.9583 57.5458 17.8926C57.5417 17.8598 57.5384 17.8343 57.5361 17.8167L57.5335 17.7966L57.5332 17.7946C57.4902 17.3758 57.3268 17.044 57.0457 16.8176C56.7701 16.5957 56.4152 16.5024 56.0386 16.4874C55.2929 16.4578 54.353 16.7312 53.4239 17.132C52.4861 17.5365 51.524 18.0865 50.7219 18.6456C49.9322 19.1962 49.2665 19.777 48.9452 20.2552L48.9441 20.2568L48.9284 20.2781C48.915 20.2966 48.8955 20.3235 48.871 20.3582C48.822 20.4276 48.7526 20.5283 48.6695 20.6552C48.5036 20.9088 48.2824 21.2682 48.061 21.6925C47.6228 22.5325 47.1641 23.6634 47.1641 24.7427Z" fill="black" stroke="black" stroke-width="0.576172"/>
</svg>
