<svg width="46" height="22" viewBox="0 0 46 22" fill="none" xmlns="http://www.w3.org/2000/svg">
<path d="M21.9512 4.74754V1.07886H10.6494C5.0775 1.07886 0.560547 5.59581 0.560547 11.1677C0.560547 16.7397 5.0775 21.2566 10.6494 21.2566H21.9512V17.5879H10.8787C7.33295 17.5879 4.45853 14.7135 4.45853 11.1677C4.45853 7.62197 7.33295 4.74754 10.8787 4.74754H21.9512Z" fill="black"/>
<path d="M6.52216 13.0021V9.3334H21.1969V13.0021H6.52216Z" fill="black"/>
<path d="M32.8906 11.8557L35.6421 9.1042L45.0431 18.5052L42.2916 21.2567L32.8906 11.8557Z" fill="black"/>
<path d="M34.9542 21.7153C29.129 21.7153 24.4067 16.993 24.4067 11.1678C24.4067 5.34263 29.129 0.620361 34.9542 0.620361C40.7794 0.620361 45.5017 5.34263 45.5017 11.1678C45.5017 13.1396 44.9606 14.9851 44.0188 16.5638L41.14 13.6849C41.4564 12.9081 41.6307 12.0583 41.6307 11.1678C41.6307 7.48051 38.6415 4.49134 34.9542 4.49134C31.2669 4.49134 28.2777 7.48051 28.2777 11.1678C28.2777 14.8552 31.2669 17.8443 34.9542 17.8443C35.8447 17.8443 36.6945 17.67 37.4713 17.3536L37.7057 17.588L40.3501 20.2325C38.7715 21.1742 36.926 21.7153 34.9542 21.7153Z" fill="black"/>
</svg>
