<svg width="343" height="32" viewBox="0 0 343 32" fill="none" xmlns="http://www.w3.org/2000/svg">
<rect x="4.83374" y="1.27612" width="6.25" height="6.25" rx="3.125" fill="#53565A"/>
<path d="M7.90283 3.57716H7.29397V3.21258C7.49085 3.21258 7.6464 3.17734 7.76064 3.10685C7.87731 3.03394 7.93564 2.92699 7.93564 2.78602H8.42054V5.27612H7.90283V3.57716Z" fill="white"/>
<path d="M28.5945 6.49115L28.9851 6.49454L28.5945 6.49115ZM14.8595 13.776V6.48437H14.0782V13.776H14.8595ZM15.2501 6.09375H27.8133V5.3125H15.2501V6.09375ZM28.2039 6.48776L28.1407 13.7727L28.9219 13.7794L28.9851 6.49454L28.2039 6.48776ZM28.5313 13.3854H14.4688V14.1667H28.5313V13.3854ZM13.948 14.1667H14.4688V13.3854H13.948V14.1667ZM12.7761 14.5573V16.6406H13.5574V14.5573H12.7761ZM28.5313 14.1667H29.0522V13.3854H28.5313V14.1667ZM29.4428 14.5573V16.6406H30.224V14.5573H29.4428ZM29.0522 17.0312H13.948V17.8125H29.0522V17.0312ZM29.4428 16.6406C29.4428 16.8564 29.2679 17.0312 29.0522 17.0312V17.8125C29.6994 17.8125 30.224 17.2878 30.224 16.6406H29.4428ZM12.7761 16.6406C12.7761 17.2878 13.3008 17.8125 13.948 17.8125V17.0312C13.7323 17.0312 13.5574 16.8564 13.5574 16.6406H12.7761ZM13.948 13.3854C13.3008 13.3854 12.7761 13.9101 12.7761 14.5573H13.5574C13.5574 14.3416 13.7323 14.1667 13.948 14.1667V13.3854ZM27.8133 6.09375C28.0303 6.09375 28.2058 6.27071 28.2039 6.48776L28.9851 6.49454C28.9908 5.84338 28.4645 5.3125 27.8133 5.3125V6.09375ZM29.0522 14.1667C29.2679 14.1667 29.4428 14.3416 29.4428 14.5573H30.224C30.224 13.9101 29.6994 13.3854 29.0522 13.3854V14.1667ZM14.8595 6.48437C14.8595 6.26864 15.0343 6.09375 15.2501 6.09375V5.3125C14.6029 5.3125 14.0782 5.83717 14.0782 6.48437H14.8595Z" fill="#53565A"/>
<path d="M15.798 8.51787H16.4855C16.5813 8.51787 16.6813 8.52204 16.7855 8.53037C16.8897 8.5387 16.9917 8.56787 17.0917 8.61787C17.1917 8.67204 17.2667 8.7512 17.3167 8.85537C17.3688 8.95745 17.3949 9.07308 17.3949 9.20225C17.3949 9.33975 17.3667 9.45745 17.3105 9.55537C17.2563 9.6512 17.1824 9.72725 17.0886 9.7835C17.024 9.821 16.9397 9.84912 16.8355 9.86787C16.7313 9.88454 16.6084 9.89287 16.4667 9.89287H16.1042V10.7866H15.798V8.51787ZM17.0792 9.20225C17.0792 9.11683 17.0605 9.03975 17.023 8.971C16.9876 8.90016 16.9345 8.84704 16.8636 8.81162C16.8282 8.79287 16.7782 8.78141 16.7136 8.77725C16.649 8.771 16.5772 8.76787 16.498 8.76787H16.1042V9.64287H16.498C16.5772 9.64287 16.649 9.63975 16.7136 9.6335C16.7782 9.62516 16.8282 9.61266 16.8636 9.596C16.9345 9.56058 16.9876 9.50745 17.023 9.43662C17.0605 9.36579 17.0792 9.28766 17.0792 9.20225ZM18.3819 10.6054C18.4569 10.6054 18.5246 10.5908 18.5851 10.5616C18.6476 10.5304 18.6996 10.4877 18.7413 10.4335C18.783 10.3793 18.8153 10.3147 18.8382 10.2397C18.8611 10.1627 18.8726 10.0772 18.8726 9.9835C18.8726 9.88975 18.8611 9.80537 18.8382 9.73037C18.8153 9.65329 18.7819 9.58766 18.7382 9.5335C18.6965 9.47725 18.6455 9.43454 18.5851 9.40537C18.5267 9.37412 18.4601 9.3585 18.3851 9.3585C18.3121 9.3585 18.2455 9.37308 18.1851 9.40225C18.1267 9.43141 18.0767 9.47308 18.0351 9.52725C17.9934 9.58141 17.9611 9.64704 17.9382 9.72412C17.9153 9.79912 17.9038 9.8835 17.9038 9.97725C17.9038 10.071 17.9142 10.1564 17.9351 10.2335C17.958 10.3106 17.9903 10.3772 18.0319 10.4335C18.0736 10.4877 18.1236 10.5304 18.1819 10.5616C18.2424 10.5908 18.309 10.6054 18.3819 10.6054ZM18.3819 10.8335C18.2632 10.8335 18.1559 10.8127 18.0601 10.771C17.9642 10.7293 17.8819 10.671 17.8132 10.596C17.7465 10.521 17.6955 10.4314 17.6601 10.3272C17.6246 10.221 17.6069 10.1054 17.6069 9.98037C17.6069 9.85537 17.6246 9.74079 17.6601 9.63662C17.6976 9.53245 17.7496 9.44287 17.8163 9.36787C17.883 9.29079 17.9642 9.23141 18.0601 9.18975C18.158 9.14808 18.2663 9.12725 18.3851 9.12725C18.5059 9.12725 18.6142 9.14808 18.7101 9.18975C18.808 9.23141 18.8903 9.29079 18.9569 9.36787C19.0257 9.44287 19.0778 9.53245 19.1132 9.63662C19.1507 9.74079 19.1694 9.85537 19.1694 9.98037C19.1694 10.1054 19.1507 10.221 19.1132 10.3272C19.0778 10.4314 19.0257 10.521 18.9569 10.596C18.8903 10.671 18.808 10.7293 18.7101 10.771C18.6121 10.8127 18.5028 10.8335 18.3819 10.8335ZM19.5322 8.51787H19.8197V10.7866H19.5322V8.51787ZM20.9482 10.8335C20.7003 10.8335 20.5107 10.7585 20.3795 10.6085C20.2482 10.4564 20.1826 10.247 20.1826 9.98037C20.1826 9.85954 20.2003 9.74704 20.2357 9.64287C20.2712 9.5387 20.3222 9.44808 20.3889 9.371C20.4576 9.29391 20.5389 9.23454 20.6326 9.19287C20.7285 9.14912 20.8357 9.12725 20.9545 9.12725C21.2066 9.12725 21.391 9.20954 21.5076 9.37412C21.6264 9.5387 21.6857 9.771 21.6857 10.071H20.4826C20.4868 10.1502 20.5014 10.2231 20.5264 10.2897C20.5514 10.3543 20.5847 10.4106 20.6264 10.4585C20.6701 10.5043 20.7191 10.5408 20.7732 10.5679C20.8295 10.5929 20.891 10.6054 20.9576 10.6054C21.0618 10.6054 21.1503 10.5814 21.2232 10.5335C21.2982 10.4856 21.3503 10.4095 21.3795 10.3054H21.6826C21.6472 10.4804 21.5618 10.6127 21.4264 10.7022C21.293 10.7897 21.1337 10.8335 20.9482 10.8335ZM20.942 9.3585C20.8191 9.3585 20.718 9.39808 20.6389 9.47725C20.5597 9.55433 20.5097 9.67412 20.4889 9.83662H21.3795C21.3628 9.67412 21.3149 9.55433 21.2357 9.47725C21.1566 9.39808 21.0587 9.3585 20.942 9.3585ZM22.225 10.2679C22.225 10.3825 22.2614 10.4689 22.3343 10.5272C22.4072 10.5835 22.5104 10.6116 22.6437 10.6116C22.7541 10.6116 22.8385 10.5918 22.8968 10.5522C22.9572 10.5106 22.9875 10.4502 22.9875 10.371C22.9875 10.321 22.976 10.2814 22.9531 10.2522C22.9302 10.221 22.8989 10.196 22.8593 10.1772C22.8218 10.1564 22.7781 10.1408 22.7281 10.1304C22.6781 10.1179 22.626 10.1064 22.5718 10.096C22.501 10.0835 22.4302 10.0689 22.3593 10.0522C22.2885 10.0356 22.2239 10.0106 22.1656 9.97725C22.1093 9.94183 22.0625 9.89391 22.025 9.8335C21.9895 9.77308 21.9718 9.69391 21.9718 9.596C21.9718 9.52725 21.9864 9.46475 22.0156 9.4085C22.0468 9.35016 22.0895 9.30016 22.1437 9.2585C22.2 9.21683 22.2666 9.18454 22.3437 9.16162C22.4208 9.1387 22.5072 9.12725 22.6031 9.12725C22.8072 9.12725 22.9645 9.17308 23.075 9.26475C23.1875 9.35641 23.2447 9.49079 23.2468 9.66787H22.9625C22.9604 9.45745 22.8385 9.35225 22.5968 9.35225C22.4968 9.35225 22.4177 9.37308 22.3593 9.41475C22.301 9.45433 22.2718 9.5085 22.2718 9.57725C22.2718 9.62308 22.2822 9.66058 22.3031 9.68975C22.326 9.71891 22.3552 9.74287 22.3906 9.76162C22.426 9.78037 22.4677 9.796 22.5156 9.8085C22.5635 9.81891 22.6145 9.82933 22.6687 9.83975C22.7395 9.85433 22.8125 9.871 22.8875 9.88975C22.9625 9.90641 23.0291 9.93245 23.0875 9.96787C23.1479 10.0033 23.1968 10.0512 23.2343 10.1116C23.2739 10.172 23.2937 10.2522 23.2937 10.3522C23.2937 10.4252 23.277 10.4918 23.2437 10.5522C23.2104 10.6106 23.1645 10.6606 23.1062 10.7022C23.0479 10.7439 22.9781 10.7762 22.8968 10.7991C22.8177 10.822 22.7312 10.8335 22.6375 10.8335C22.4125 10.8335 22.2395 10.7845 22.1187 10.6866C21.9979 10.5887 21.9364 10.4491 21.9343 10.2679H22.225ZM23.727 9.17412V8.7835H24.0145V9.17412H24.3645V9.41162H24.0145V10.2147C24.0145 10.271 24.0155 10.322 24.0176 10.3679C24.0218 10.4116 24.0301 10.4491 24.0426 10.4804C24.0551 10.5095 24.0739 10.5325 24.0989 10.5491C24.1259 10.5637 24.1624 10.571 24.2082 10.571C24.2311 10.571 24.2551 10.571 24.2801 10.571C24.3072 10.5689 24.3374 10.5637 24.3707 10.5554V10.7866C24.2853 10.8054 24.2061 10.8147 24.1332 10.8147C24.0707 10.8147 24.0134 10.8064 23.9614 10.7897C23.9114 10.7752 23.8686 10.7502 23.8332 10.7147C23.7999 10.6793 23.7739 10.6314 23.7551 10.571C23.7364 10.5106 23.727 10.4366 23.727 10.3491V9.41162H23.4301V9.17412H23.727ZM25.7114 10.7866C25.7072 10.7637 25.703 10.7356 25.6989 10.7022C25.6947 10.6668 25.6916 10.622 25.6895 10.5679C25.6208 10.6595 25.5416 10.7252 25.452 10.7647C25.3624 10.8022 25.2593 10.821 25.1426 10.821C24.9635 10.821 24.8249 10.7762 24.727 10.6866C24.6312 10.595 24.5833 10.4772 24.5833 10.3335C24.5833 10.246 24.5999 10.1731 24.6333 10.1147C24.6687 10.0543 24.7145 10.0054 24.7708 9.96787C24.8291 9.92829 24.8958 9.89808 24.9708 9.87725C25.0458 9.85433 25.1228 9.83766 25.202 9.82725C25.2812 9.81475 25.3603 9.80537 25.4395 9.79912C25.5187 9.79287 25.5916 9.78558 25.6583 9.77725V9.721C25.6583 9.60016 25.6301 9.50745 25.5739 9.44287C25.5176 9.3762 25.427 9.34287 25.302 9.34287C25.1895 9.34287 25.0989 9.371 25.0301 9.42725C24.9614 9.48141 24.927 9.56266 24.927 9.671H24.6426C24.6426 9.58766 24.6583 9.51266 24.6895 9.446C24.7228 9.37933 24.7687 9.32308 24.827 9.27725C24.8853 9.22933 24.9541 9.19287 25.0333 9.16787C25.1145 9.14079 25.2041 9.12725 25.302 9.12725C25.4541 9.12725 25.5728 9.15016 25.6583 9.196C25.7437 9.24183 25.8072 9.30016 25.8489 9.371C25.8905 9.44183 25.9155 9.521 25.9239 9.6085C25.9343 9.69391 25.9395 9.77725 25.9395 9.8585V10.2991C25.9395 10.3929 25.9416 10.4793 25.9458 10.5585C25.952 10.6377 25.9635 10.7137 25.9801 10.7866H25.7114ZM25.6583 9.99912C25.5978 10.0075 25.5228 10.0147 25.4333 10.021C25.3437 10.0252 25.2572 10.0377 25.1739 10.0585C25.0905 10.0793 25.0197 10.1116 24.9614 10.1554C24.903 10.197 24.8739 10.2585 24.8739 10.3397C24.8739 10.4189 24.903 10.4845 24.9614 10.5366C25.0218 10.5866 25.1041 10.6116 25.2083 10.6116C25.2666 10.6116 25.3228 10.6043 25.377 10.5897C25.4312 10.5752 25.4791 10.5491 25.5208 10.5116C25.5624 10.472 25.5958 10.4189 25.6208 10.3522C25.6458 10.2835 25.6583 10.196 25.6583 10.0897V9.99912ZM26.6736 9.17412V9.41162C26.7361 9.3137 26.8048 9.24704 26.8798 9.21162C26.9548 9.17412 27.0371 9.15537 27.1267 9.15537C27.1871 9.15537 27.2475 9.16162 27.3079 9.17412V9.42725C27.2725 9.421 27.2392 9.41579 27.2079 9.41162C27.1767 9.40745 27.1465 9.40537 27.1173 9.40537C27.0298 9.40537 26.9579 9.421 26.9017 9.45225C26.8475 9.48141 26.8048 9.52412 26.7736 9.58037C26.7423 9.63454 26.7204 9.7012 26.7079 9.78037C26.6954 9.85954 26.6892 9.94808 26.6892 10.046V10.7866H26.4017V9.17412H26.6736Z" fill="black"/>
<path d="M13.264 25.4094V26.3974H15.5973V25.4094H13.264ZM15.1234 25.7703V26.0401H13.7416V25.7703H15.1234ZM13.0562 23.2948V23.6594H15.8051V23.2948H13.0562ZM14.438 23.7432C13.7124 23.7432 13.3077 23.9073 13.3077 24.2245C13.3077 24.5417 13.7124 24.7057 14.438 24.7057C15.1635 24.7057 15.5682 24.5417 15.5682 24.2245C15.5682 23.9073 15.1635 23.7432 14.438 23.7432ZM14.438 24.0677C14.8572 24.0677 15.0468 24.1115 15.0468 24.2245C15.0468 24.3339 14.8572 24.3812 14.438 24.3812C14.0187 24.3812 13.8255 24.3339 13.8255 24.2245C13.8255 24.1115 14.0187 24.0677 14.438 24.0677ZM14.1937 23.0323V23.5536H14.6786V23.0323H14.1937ZM12.9103 24.8661V25.238H15.9619V24.8661H12.9103ZM14.1937 24.5891V25.063H14.6786V24.5891H14.1937ZM18.7325 23.0578V26.4339H19.1955V23.0578H18.7325ZM17.7444 24.2865V24.713H18.1965V24.2865H17.7444ZM18.0616 23.1234V26.2771H18.5174V23.1234H18.0616ZM16.2898 23.437V23.8234H17.8246V23.437H16.2898ZM16.2825 25.6682C16.6981 25.6682 17.3835 25.6573 17.9085 25.5443L17.8757 25.1943C17.3653 25.2635 16.6543 25.2745 16.2314 25.2745L16.2825 25.6682ZM16.4976 23.6849V25.3766H16.9314V23.6849H16.4976ZM17.1757 23.6849V25.3766H17.6132V23.6849H17.1757ZM21.9332 23.0542V26.4411H22.4218V23.0542H21.9332ZM20.6025 23.2911C20.0921 23.2911 19.7166 23.7578 19.7166 24.4943C19.7166 25.238 20.0921 25.7047 20.6025 25.7047C21.1129 25.7047 21.4884 25.238 21.4884 24.4943C21.4884 23.7578 21.1129 23.2911 20.6025 23.2911ZM20.6025 23.7323C20.8541 23.7323 21.0218 23.9984 21.0218 24.4943C21.0218 24.9974 20.8541 25.2672 20.6025 25.2672C20.3509 25.2672 20.1796 24.9974 20.1796 24.4943C20.1796 23.9984 20.3509 23.7323 20.6025 23.7323ZM23.785 23.5901V23.9693C23.785 24.5417 23.5116 25.1651 22.9465 25.4167L23.2199 25.7995C23.8543 25.5115 24.1715 24.7495 24.1715 23.9693V23.5901H23.785ZM23.8944 23.5901V23.9693C23.8944 24.7203 24.2079 25.4385 24.8496 25.7156L25.1121 25.3328C24.547 25.0995 24.2772 24.5161 24.2772 23.9693V23.5901H23.8944ZM23.0814 23.3823V23.7797H24.9736V23.3823H23.0814ZM25.2871 23.0578V26.4339H25.7756V23.0578H25.2871ZM27.1986 23.2583V24.6875H28.8356V23.2583H27.1986ZM28.3616 23.6375V24.3083H27.6726V23.6375H28.3616ZM29.346 23.0578V24.9719H29.8346V23.0578H29.346ZM28.4455 25.4057V25.4495C28.4455 25.6974 28.1137 26 27.3736 26.062L27.5304 26.4266C28.3945 26.3464 28.8611 25.9307 28.8611 25.4495V25.4057H28.4455ZM28.5257 25.4057V25.4495C28.5257 25.9161 28.9887 26.3464 29.8564 26.4266L30.0132 26.062C29.2804 25.9964 28.945 25.6865 28.945 25.4495V25.4057H28.5257ZM27.5049 25.1542V25.5151H29.882V25.1542H27.5049ZM28.4491 24.8807V25.3219H28.945V24.8807H28.4491ZM11.2371 30.65V31.0437H14.2923V30.65H11.2371ZM12.5167 29.9026V30.7411H13.0016V29.9026H12.5167ZM11.5542 28.3057V29.9646H13.9568V28.3057H11.5542ZM13.4829 28.6922V29.5818H12.0318V28.6922H13.4829ZM16.7456 28.0578V31.4339H17.2342V28.0578H16.7456ZM17.1248 29.3156V29.7167H17.7227V29.3156H17.1248ZM14.6894 28.324V30.6536H16.33V28.324H15.8487V29.1443H15.1706V28.324H14.6894ZM15.1706 29.5198H15.8487V30.2635H15.1706V29.5198ZM18.8927 28.1562C18.3787 28.1562 17.9922 28.4771 17.9922 28.9292C17.9922 29.3776 18.3787 29.6984 18.8927 29.6984C19.4068 29.6984 19.7933 29.3776 19.7933 28.9292C19.7933 28.4771 19.4068 28.1562 18.8927 28.1562ZM18.8927 28.55C19.1407 28.55 19.3229 28.6885 19.3229 28.9292C19.3229 29.1698 19.1407 29.3083 18.8927 29.3083C18.6448 29.3083 18.4589 29.1698 18.4589 28.9292C18.4589 28.6885 18.6448 28.55 18.8927 28.55ZM20.2599 28.0578V29.7458H20.7485V28.0578H20.2599ZM18.4953 29.8844V30.2599H20.2672V30.4604H18.5026V31.2188H18.9766V30.8104H20.7485V29.8844H18.4953ZM18.5026 31.0219V31.3974H20.8323V31.0219H18.5026ZM22.0789 28.2401C21.6268 28.2401 21.306 28.5609 21.306 29.024C21.306 29.487 21.6268 29.8078 22.0789 29.8078C22.5273 29.8078 22.8518 29.487 22.8518 29.024C22.8518 28.5609 22.5273 28.2401 22.0789 28.2401ZM22.0789 28.6302C22.2721 28.6302 22.4143 28.7724 22.4143 29.024C22.4143 29.2719 22.2721 29.4141 22.0789 29.4141C21.882 29.4141 21.7435 29.2719 21.7435 29.024C21.7435 28.7724 21.882 28.6302 22.0789 28.6302ZM23.7122 28.0615V29.8917H24.1716V28.0615H23.7122ZM23.3185 28.7615V29.1516H23.8544V28.7615H23.3185ZM22.9977 28.1234V29.8698H23.4497V28.1234H22.9977ZM21.882 30.0339V31.3974H24.1716V30.0339H23.6977V30.3365H22.3596V30.0339H21.882ZM22.3596 30.712H23.6977V31.0109H22.3596V30.712ZM27.1769 28.8125V29.2026H27.8186V28.8125H27.1769ZM27.691 28.0578V29.9026H28.1759V28.0578H27.691ZM25.9337 30.0411V31.3974H28.1759V30.0411H27.6946V30.3474H26.4149V30.0411H25.9337ZM26.4149 30.7229H27.6946V31.0109H26.4149V30.7229ZM26.1305 28.3167V28.5318C26.1305 28.9583 25.8899 29.3995 25.3321 29.5818L25.5764 29.9682C26.2253 29.7531 26.5243 29.1661 26.5243 28.5318V28.3167H26.1305ZM26.2326 28.3167V28.5318C26.2326 29.1333 26.5206 29.6911 27.1477 29.899L27.3847 29.5234C26.8524 29.3448 26.6227 28.9255 26.6227 28.5318V28.3167H26.2326ZM25.4634 28.2109V28.5974H27.279V28.2109H25.4634ZM28.7042 29.6948V30.0813H31.7594V29.6948H28.7042ZM29.9839 29.2573V29.8625H30.4652V29.2573H29.9839ZM29.9766 28.1161V28.2182C29.9766 28.5974 29.6157 28.9839 28.8573 29.075L29.036 29.4542C29.8964 29.3302 30.3922 28.8417 30.3922 28.2182V28.1161H29.9766ZM30.0568 28.1161V28.2182C30.0568 28.8562 30.5527 29.3266 31.4131 29.4542L31.5917 29.075C30.8261 28.9839 30.4724 28.612 30.4724 28.2182V28.1161H30.0568ZM29.0433 30.3182V30.6974H30.9027V31.4339H31.3875V30.3182H29.0433Z" fill="#53565A"/>
<path d="M55.0837 13.646L57.6879 16.2502L55.0837 18.8543" stroke="#53565A" stroke-width="1.04167"/>
<rect x="80.8545" y="1.27612" width="6.25" height="6.25" rx="3.125" fill="#53565A"/>
<path d="M84.8685 5.27612H83.093C83.0905 5.25668 83.0893 5.23723 83.0893 5.21779C83.0893 5.19591 83.0893 5.1789 83.0893 5.16675C83.0893 5.05737 83.1027 4.95529 83.1294 4.8605C83.1562 4.76571 83.1963 4.67578 83.2497 4.59071C83.3056 4.50564 83.3749 4.42421 83.4576 4.34644C83.5402 4.26866 83.6374 4.18966 83.7492 4.10946C83.81 4.06571 83.8732 4.02317 83.9388 3.98185C84.0069 3.9381 84.0688 3.89192 84.1247 3.84331C84.1806 3.79227 84.2268 3.73637 84.2633 3.6756C84.2997 3.61484 84.318 3.54435 84.318 3.46414C84.318 3.36692 84.2876 3.28914 84.2268 3.23081C84.1685 3.17005 84.0907 3.13966 83.9935 3.13966C83.8768 3.13966 83.7857 3.18098 83.7201 3.26362C83.6569 3.34626 83.6228 3.46536 83.618 3.62091H83.093C83.0954 3.48966 83.1173 3.36935 83.1586 3.25998C83.1999 3.1506 83.2595 3.05703 83.3372 2.97925C83.415 2.90147 83.511 2.84071 83.6253 2.79696C83.7419 2.75321 83.8756 2.73133 84.0263 2.73133C84.1697 2.73133 84.2937 2.74956 84.3982 2.78602C84.5051 2.82005 84.5926 2.86866 84.6607 2.93185C84.7312 2.99505 84.7834 3.07039 84.8175 3.15789C84.8515 3.24296 84.8685 3.33775 84.8685 3.44227C84.8685 3.55894 84.8478 3.66345 84.8065 3.75581C84.7652 3.84574 84.7105 3.9296 84.6425 4.00737C84.5744 4.08272 84.4966 4.15321 84.4091 4.21883C84.3216 4.28446 84.2329 4.34887 84.143 4.41206C84.0312 4.48741 83.9364 4.56397 83.8586 4.64175C83.7808 4.7171 83.7419 4.79366 83.7419 4.87144C83.844 4.86171 83.9364 4.85685 84.019 4.85685C84.1017 4.85442 84.1758 4.85321 84.2414 4.85321H84.8685V5.27612Z" fill="white"/>
<path d="M102.469 8.82812L99.3436 5.70312M102.469 8.82812V17.9427H91.7915V5.70312H99.3436M102.469 8.82812H99.3436V5.70312M93.8748 11.3021H100.646M93.8748 12.9948H100.646M100.646 14.6875H93.8748" stroke="#53565A" stroke-width="0.78125"/>
<path d="M91.8155 25.1104V25.6573H92.3004V25.1104H91.8155ZM93.2921 23.0578V26.4339H93.777V23.0578H93.2921ZM91.0353 25.8724C91.6332 25.8724 92.4171 25.8688 93.1499 25.7339L93.1171 25.3839C92.4061 25.4786 91.5895 25.4786 90.977 25.4823L91.0353 25.8724ZM91.0426 23.4297V23.8089H93.0733V23.4297H91.0426ZM92.0561 23.9437C91.5639 23.9437 91.2176 24.199 91.2176 24.5745C91.2176 24.9536 91.5639 25.2089 92.0561 25.2089C92.5556 25.2089 92.902 24.9536 92.902 24.5745C92.902 24.199 92.5556 23.9437 92.0561 23.9437ZM92.0561 24.3083C92.2822 24.3083 92.4389 24.4031 92.4389 24.5745C92.4389 24.7495 92.2822 24.8443 92.0561 24.8443C91.8374 24.8443 91.6806 24.7495 91.6806 24.5745C91.6806 24.4031 91.8374 24.3083 92.0561 24.3083ZM91.8155 23.0724V23.6484H92.3004V23.0724H91.8155ZM95.1913 24.7896V25.5297H95.6762V24.7896H95.1913ZM96.6715 23.0578V25.6135H97.1564V23.0578H96.6715ZM94.7246 25.9891V26.3755H97.2293V25.9891H94.7246ZM94.7246 25.3729V26.0911H95.2095V25.3729H94.7246ZM94.36 24.9354C94.9689 24.9354 95.76 24.9172 96.4782 24.7969L96.4491 24.4505C95.7418 24.5417 94.9178 24.549 94.3017 24.549L94.36 24.9354ZM96.0335 25.0193V25.351H96.7772V25.0193H96.0335ZM95.3881 23.1745C94.8923 23.1745 94.546 23.4187 94.546 23.776C94.546 24.137 94.8923 24.3776 95.3881 24.3776C95.8803 24.3776 96.2267 24.137 96.2267 23.776C96.2267 23.4187 95.8803 23.1745 95.3881 23.1745ZM95.3881 23.5281C95.6105 23.5281 95.7673 23.612 95.7673 23.776C95.7673 23.9401 95.6105 24.024 95.3881 24.024C95.1621 24.024 95.0053 23.9401 95.0053 23.776C95.0053 23.612 95.1621 23.5281 95.3881 23.5281ZM99.8248 23.0542V26.4302H100.313V23.0542H99.8248ZM100.186 24.3448V24.7422H100.78V24.3448H100.186ZM98.9389 23.4042V23.488C98.9389 24.4031 98.5196 25.0229 97.6337 25.4823L97.9035 25.8505C99.0264 25.2854 99.4129 24.4177 99.4129 23.4042H98.9389ZM97.8196 23.4042V23.7943H99.1868V23.4042H97.8196ZM103.339 23.0578V24.8734H103.828V23.0578H103.339ZM101.582 25.0193V26.3974H103.828V25.0193H103.346V25.3328H102.059V25.0193H101.582ZM102.059 25.7047H103.346V26.0109H102.059V25.7047ZM101.99 23.1964C101.465 23.1964 101.071 23.5281 101.071 23.9948C101.071 24.4615 101.465 24.7932 101.99 24.7932C102.515 24.7932 102.905 24.4615 102.905 23.9948C102.905 23.5281 102.515 23.1964 101.99 23.1964ZM101.99 23.5974C102.245 23.5974 102.431 23.7469 102.431 23.9948C102.431 24.2464 102.245 24.3922 101.99 24.3922C101.731 24.3922 101.545 24.2464 101.545 23.9948C101.545 23.7469 101.731 23.5974 101.99 23.5974ZM91.3993 28.0578V31.4339H91.8624V28.0578H91.3993ZM90.4113 29.2865V29.713H90.8634V29.2865H90.4113ZM90.7285 28.1234V31.2771H91.1842V28.1234H90.7285ZM88.9566 28.437V28.8234H90.4915V28.437H88.9566ZM88.9493 30.6682C89.365 30.6682 90.0504 30.6573 90.5754 30.5443L90.5426 30.1943C90.0321 30.2635 89.3212 30.2745 88.8983 30.2745L88.9493 30.6682ZM89.1644 28.6849V30.3766H89.5983V28.6849H89.1644ZM89.8426 28.6849V30.3766H90.2801V28.6849H89.8426ZM94.6001 28.0542V31.4411H95.0886V28.0542H94.6001ZM93.2694 28.2911C92.7589 28.2911 92.3834 28.7578 92.3834 29.4943C92.3834 30.238 92.7589 30.7047 93.2694 30.7047C93.7798 30.7047 94.1553 30.238 94.1553 29.4943C94.1553 28.7578 93.7798 28.2911 93.2694 28.2911ZM93.2694 28.7323C93.5209 28.7323 93.6886 28.9984 93.6886 29.4943C93.6886 29.9974 93.5209 30.2672 93.2694 30.2672C93.0178 30.2672 92.8464 29.9974 92.8464 29.4943C92.8464 28.9984 93.0178 28.7323 93.2694 28.7323ZM96.4519 28.5901V28.9693C96.4519 29.5417 96.1784 30.1651 95.6133 30.4167L95.8868 30.7995C96.5212 30.5115 96.8383 29.7495 96.8383 28.9693V28.5901H96.4519ZM96.5613 28.5901V28.9693C96.5613 29.7203 96.8748 30.4385 97.5165 30.7156L97.779 30.3328C97.2139 30.0995 96.9441 29.5161 96.9441 28.9693V28.5901H96.5613ZM95.7482 28.3823V28.7797H97.6404V28.3823H95.7482ZM97.954 28.0578V31.4339H98.4425V28.0578H97.954ZM101.521 28.8125V29.2026H102.162V28.8125H101.521ZM102.035 28.0578V29.9026H102.52V28.0578H102.035ZM100.277 30.0411V31.3974H102.52V30.0411H102.038V30.3474H100.759V30.0411H100.277ZM100.759 30.7229H102.038V31.0109H100.759V30.7229ZM100.474 28.3167V28.5318C100.474 28.9583 100.234 29.3995 99.6759 29.5818L99.9202 29.9682C100.569 29.7531 100.868 29.1661 100.868 28.5318V28.3167H100.474ZM100.576 28.3167V28.5318C100.576 29.1333 100.864 29.6911 101.492 29.899L101.729 29.5234C101.196 29.3448 100.967 28.9255 100.967 28.5318V28.3167H100.576ZM99.8072 28.2109V28.5974H101.623V28.2109H99.8072ZM103.048 29.6948V30.0813H106.103V29.6948H103.048ZM104.328 29.2573V29.8625H104.809V29.2573H104.328ZM104.32 28.1161V28.2182C104.32 28.5974 103.959 28.9839 103.201 29.075L103.38 29.4542C104.24 29.3302 104.736 28.8417 104.736 28.2182V28.1161H104.32ZM104.401 28.1161V28.2182C104.401 28.8562 104.896 29.3266 105.757 29.4542L105.936 29.075C105.17 28.9839 104.816 28.612 104.816 28.2182V28.1161H104.401ZM103.387 30.3182V30.6974H105.246V31.4339H105.731V30.3182H103.387Z" fill="#53565A"/>
<path d="M131.104 13.646L133.709 16.2502L131.104 18.8543" stroke="#53565A" stroke-width="1.04167"/>
<rect x="156.875" y="0.833496" width="6.25" height="6.25" rx="3.125" fill="#53565A"/>
<path d="M159.596 3.9986C159.594 4.01075 159.593 4.02291 159.593 4.03506C159.593 4.04478 159.593 4.05329 159.593 4.06058C159.593 4.18454 159.629 4.28298 159.702 4.35589C159.775 4.42881 159.875 4.46527 160.001 4.46527C160.118 4.46527 160.21 4.43488 160.278 4.37412C160.346 4.31093 160.38 4.22829 160.38 4.1262C160.38 4.00468 160.339 3.91839 160.256 3.86735C160.176 3.81631 160.039 3.79079 159.844 3.79079H159.786V3.36787H159.841C160.025 3.36787 160.157 3.34113 160.234 3.28766C160.315 3.23176 160.355 3.14548 160.355 3.02881C160.355 2.93402 160.322 2.85745 160.256 2.79912C160.193 2.74079 160.11 2.71162 160.008 2.71162C159.758 2.71162 159.633 2.84773 159.633 3.11995H159.082C159.099 2.84773 159.186 2.64113 159.341 2.50016C159.499 2.35919 159.725 2.2887 160.019 2.2887C160.151 2.2887 160.27 2.30572 160.377 2.33975C160.486 2.37134 160.578 2.41752 160.654 2.47829C160.729 2.53905 160.787 2.61197 160.829 2.69704C160.87 2.77968 160.891 2.87325 160.891 2.97777C160.891 3.04339 160.88 3.1078 160.858 3.171C160.836 3.23419 160.804 3.29252 160.763 3.346C160.722 3.39704 160.672 3.442 160.614 3.48089C160.558 3.51735 160.495 3.54287 160.424 3.55745V3.56839C160.594 3.60971 160.719 3.67777 160.8 3.77256C160.882 3.86735 160.924 3.99495 160.924 4.15537C160.924 4.26718 160.902 4.36804 160.858 4.45798C160.817 4.54791 160.756 4.62568 160.676 4.69131C160.598 4.7545 160.502 4.80311 160.388 4.83714C160.276 4.87117 160.151 4.88818 160.012 4.88818C159.711 4.88818 159.475 4.81284 159.305 4.66214C159.137 4.50902 159.053 4.29391 159.053 4.01683V3.9986H159.596Z" fill="white"/>
<path fill-rule="evenodd" clip-rule="evenodd" d="M179.271 17.7606C179.271 16.2411 178.667 14.7839 177.593 13.7094C177.051 13.1679 176.412 12.7459 175.717 12.4606C176.911 11.728 177.708 10.4103 177.708 8.90641C177.708 6.60523 175.843 4.73975 173.541 4.73975C171.24 4.73975 169.375 6.60523 169.375 8.90641C169.375 10.4103 170.171 11.728 171.366 12.4606C170.671 12.7459 170.032 13.1679 169.49 13.7094C168.416 14.7839 167.812 16.2411 167.812 17.7606L168.854 17.7606C168.854 16.5173 169.348 15.325 170.227 14.4459C171.106 13.5668 172.298 13.0729 173.541 13.0729C174.785 13.0729 175.977 13.5668 176.856 14.4459C177.735 15.325 178.229 16.5173 178.229 17.7606H179.271ZM173.541 12.0331C171.815 12.0331 170.415 10.6332 170.415 8.90641C170.415 7.1796 171.815 5.77974 173.541 5.77974C175.268 5.77974 176.668 7.1796 176.668 8.90641C176.668 10.6332 175.268 12.0331 173.541 12.0331Z" fill="#53565A"/>
<path d="M164.487 24.6678V25.2147H164.972V24.6678H164.487ZM165.963 22.6152V25.9912H166.448V22.6152H165.963ZM163.707 25.4298C164.305 25.4298 165.088 25.4261 165.821 25.2912L165.788 24.9412C165.078 25.036 164.261 25.036 163.648 25.0397L163.707 25.4298ZM163.714 22.9871V23.3662H165.745V22.9871H163.714ZM164.728 23.5011C164.235 23.5011 163.889 23.7563 163.889 24.1319C163.889 24.511 164.235 24.7662 164.728 24.7662C165.227 24.7662 165.573 24.511 165.573 24.1319C165.573 23.7563 165.227 23.5011 164.728 23.5011ZM164.728 23.8657C164.954 23.8657 165.11 23.9605 165.11 24.1319C165.11 24.3069 164.954 24.4016 164.728 24.4016C164.509 24.4016 164.352 24.3069 164.352 24.1319C164.352 23.9605 164.509 23.8657 164.728 23.8657ZM164.487 22.6298V23.2058H164.972V22.6298H164.487ZM167.863 24.347V25.0871H168.348V24.347H167.863ZM169.343 22.6152V25.1709H169.828V22.6152H169.343ZM167.396 25.5464V25.9329H169.901V25.5464H167.396ZM167.396 24.9303V25.6485H167.881V24.9303H167.396ZM167.031 24.4928C167.64 24.4928 168.431 24.4746 169.15 24.3542L169.12 24.0079C168.413 24.099 167.589 24.1063 166.973 24.1063L167.031 24.4928ZM168.705 24.5766V24.9084H169.449V24.5766H168.705ZM168.06 22.7319C167.564 22.7319 167.217 22.9761 167.217 23.3334C167.217 23.6944 167.564 23.935 168.06 23.935C168.552 23.935 168.898 23.6944 168.898 23.3334C168.898 22.9761 168.552 22.7319 168.06 22.7319ZM168.06 23.0855C168.282 23.0855 168.439 23.1694 168.439 23.3334C168.439 23.4975 168.282 23.5813 168.06 23.5813C167.834 23.5813 167.677 23.4975 167.677 23.3334C167.677 23.1694 167.834 23.0855 168.06 23.0855ZM172.168 23.4319V23.8256H172.81V23.4319H172.168ZM172.679 22.6152V24.6204H173.163V22.6152H172.679ZM172.019 24.6933C171.304 24.6933 170.863 24.9376 170.863 25.3459C170.863 25.7579 171.304 25.9949 172.019 25.9949C172.733 25.9949 173.174 25.7579 173.174 25.3459C173.174 24.9376 172.733 24.6933 172.019 24.6933ZM172.019 25.0615C172.46 25.0615 172.693 25.1527 172.693 25.3459C172.693 25.5355 172.46 25.6266 172.019 25.6266C171.581 25.6266 171.348 25.5355 171.348 25.3459C171.348 25.1527 171.581 25.0615 172.019 25.0615ZM171.118 22.9542V23.1657C171.118 23.5996 170.877 24.048 170.32 24.2376L170.568 24.6204C171.213 24.4016 171.512 23.811 171.512 23.1657V22.9542H171.118ZM171.22 22.9542V23.1657C171.22 23.7673 171.508 24.3287 172.135 24.5365L172.372 24.1537C171.84 23.9751 171.61 23.5631 171.61 23.1657V22.9542H171.22ZM170.451 22.8194V23.2058H172.267V22.8194H170.451ZM173.695 25.2074V25.6011H176.751V25.2074H173.695ZM174.975 24.4855V25.3022H175.46V24.4855H174.975ZM174.016 22.8303V24.5876H176.419V22.8303H175.938V23.348H174.498V22.8303H174.016ZM174.498 23.7272H175.938V24.2011H174.498V23.7272ZM180.066 22.6152V24.4308H180.554V22.6152H180.066ZM178.309 24.5766V25.9548H180.554V24.5766H180.073V24.8902H178.786V24.5766H178.309ZM178.786 25.2621H180.073V25.5683H178.786V25.2621ZM178.717 22.7537C178.192 22.7537 177.798 23.0855 177.798 23.5522C177.798 24.0188 178.192 24.3506 178.717 24.3506C179.242 24.3506 179.632 24.0188 179.632 23.5522C179.632 23.0855 179.242 22.7537 178.717 22.7537ZM178.717 23.1548C178.972 23.1548 179.158 23.3042 179.158 23.5522C179.158 23.8037 178.972 23.9496 178.717 23.9496C178.458 23.9496 178.272 23.8037 178.272 23.5522C178.272 23.3042 178.458 23.1548 178.717 23.1548ZM181.229 24.223V24.6095H181.487C182.133 24.6095 182.479 24.5985 182.873 24.5256L182.825 24.1428C182.443 24.2121 182.114 24.223 181.487 24.223H181.229ZM181.225 22.8084V23.1912H182.228V23.5121H181.229V24.4782H181.71V23.873H182.709V22.8084H181.225ZM183.442 22.6188V24.697H183.926V22.6188H183.442ZM182.902 23.0819V23.4683H183.529V23.0819H182.902ZM182.902 23.8001V24.1865H183.529V23.8001H182.902ZM181.615 24.8501V25.2365H183.442V25.9949H183.926V24.8501H181.615ZM184.779 25.6667H184.353L185.29 23.0199H185.72L184.779 25.6667ZM165.642 29.4855V29.9704H166.123V29.4855H165.642ZM164.358 29.2376V29.6167H167.41V29.2376H164.358ZM165.642 27.6261V28.0928H166.123V27.6261H165.642ZM165.612 28.1292V28.1949C165.612 28.4537 165.299 28.7162 164.486 28.7636L164.628 29.1282C165.55 29.0662 166.039 28.7053 166.039 28.1949V28.1292H165.612ZM165.725 28.1292V28.1949C165.725 28.7053 166.214 29.0662 167.136 29.1282L167.279 28.7636C166.466 28.7162 166.152 28.4537 166.152 28.1949V28.1292H165.725ZM164.65 27.9178V28.2933H167.118V27.9178H164.65ZM165.879 29.8464C165.142 29.8464 164.705 30.0506 164.705 30.4188C164.705 30.7907 165.142 30.9912 165.879 30.9912C166.615 30.9912 167.049 30.7907 167.049 30.4188C167.049 30.0506 166.615 29.8464 165.879 29.8464ZM165.879 30.2037C166.334 30.2037 166.56 30.2657 166.56 30.4188C166.56 30.5683 166.334 30.6339 165.879 30.6339C165.419 30.6339 165.197 30.5683 165.197 30.4188C165.197 30.2657 165.419 30.2037 165.879 30.2037ZM169.52 28.4865V28.8766H170.308V28.4865H169.52ZM170.053 27.6188V30.0798H170.538V27.6188H170.053ZM168.31 30.5464V30.9329H170.614V30.5464H168.31ZM168.31 29.872V30.7761H168.795V29.872H168.31ZM168.492 28.06V28.2714C168.492 28.698 168.252 29.1391 167.694 29.3214L167.938 29.7079C168.587 29.4928 168.886 28.9058 168.886 28.2714V28.06H168.492ZM168.594 28.06V28.2714C168.594 28.873 168.882 29.4345 169.51 29.6423L169.747 29.2631C169.214 29.0845 168.985 28.6652 168.985 28.2714V28.06H168.594ZM167.825 27.8449V28.2277H169.641V27.8449H167.825ZM173.505 27.6152V30.9912H173.968V27.6152H173.505ZM172.856 27.6699V30.8417H173.308V27.6699H172.856ZM172.495 28.7053V29.0917H173.06V28.7053H172.495ZM172.473 29.4964V29.8792H173.042V29.4964H172.473ZM171.062 28.122V28.5048H172.652V28.122H171.062ZM171.85 28.6615C171.438 28.6615 171.132 28.9933 171.132 29.4746C171.132 29.9522 171.438 30.2876 171.85 30.2876C172.269 30.2876 172.572 29.9522 172.572 29.4746C172.572 28.9933 172.269 28.6615 171.85 28.6615ZM171.85 29.0662C172.029 29.0662 172.149 29.2121 172.149 29.4746C172.149 29.7334 172.029 29.8792 171.85 29.8792C171.675 29.8792 171.555 29.7334 171.555 29.4746C171.555 29.2121 171.675 29.0662 171.85 29.0662ZM171.62 27.6954V28.3589H172.098V27.6954H171.62ZM174.533 29.1537V29.5475H174.766C175.269 29.5475 175.597 29.5365 175.984 29.4709L175.94 29.0845C175.568 29.1464 175.255 29.1537 174.766 29.1537H174.533ZM174.533 27.8412V29.3688H175V28.2277H175.864V27.8412H174.533ZM174.861 28.5011V28.8657H175.827V28.5011H174.861ZM176.837 27.6152V29.6751H177.296V27.6152H176.837ZM176.432 28.4428V28.8292H176.968V28.4428H176.432ZM176.115 27.6772V29.6532H176.567V27.6772H176.115ZM174.978 29.8209V30.2074H176.815V30.9912H177.296V29.8209H174.978ZM180.2 28.3334V28.7235H180.984V28.3334H180.2ZM179.248 27.823V28.1876C179.248 28.6652 179.015 29.1319 178.457 29.3178L178.712 29.697C179.35 29.4636 179.638 28.8766 179.638 28.1876V27.823H179.248ZM179.354 27.823V28.1912C179.354 28.8292 179.631 29.3944 180.236 29.6131L180.495 29.2412C179.963 29.0589 179.74 28.6251 179.74 28.1912V27.823H179.354ZM180.816 27.6188V30.1089H181.301V27.6188H180.816ZM179.066 30.5464V30.9329H181.374V30.5464H179.066ZM179.066 29.8574V30.7615H179.554V29.8574H179.066ZM181.942 29.1537V29.5475H182.175C182.679 29.5475 183.007 29.5365 183.393 29.4709L183.349 29.0845C182.977 29.1464 182.664 29.1537 182.175 29.1537H181.942ZM181.942 27.8412V29.3688H182.409V28.2277H183.273V27.8412H181.942ZM182.27 28.5011V28.8657H183.236V28.5011H182.27ZM184.246 27.6152V29.6751H184.706V27.6152H184.246ZM183.842 28.4428V28.8292H184.377V28.4428H183.842ZM183.524 27.6772V29.6532H183.976V27.6772H183.524ZM182.387 29.8209V30.2074H184.224V30.9912H184.706V29.8209H182.387Z" fill="#53565A"/>
<path d="M209.292 13.646L211.896 16.2502L209.292 18.8543" stroke="#53565A" stroke-width="1.04167"/>
<rect x="235.063" y="1.27612" width="6.25" height="6.25" rx="3.125" fill="#53565A"/>
<path d="M238.275 4.7256H237.167V4.27716L238.231 2.78602H238.793V4.30998H239.194V4.7256H238.793V5.27612H238.275V4.7256ZM238.304 4.30998C238.304 4.1447 238.305 3.98185 238.308 3.82144C238.31 3.65859 238.319 3.49453 238.333 3.32925L238.304 3.32196C238.268 3.4046 238.223 3.48845 238.169 3.57352C238.116 3.65616 238.057 3.74001 237.994 3.82508C237.933 3.91015 237.871 3.99522 237.808 4.08029C237.745 4.16293 237.686 4.24435 237.63 4.32456C237.756 4.31727 237.873 4.31362 237.98 4.31362C238.087 4.31119 238.195 4.30998 238.304 4.30998Z" fill="white"/>
<path d="M243.917 10.9594L243.646 10.6778C243.569 10.7514 243.526 10.8531 243.526 10.9594H243.917ZM245.817 9.133L246.088 9.41464C246.116 9.38749 246.14 9.35625 246.159 9.32197L245.817 9.133ZM247.242 6.55452L246.98 6.26483C246.948 6.29377 246.921 6.3278 246.9 6.36555L247.242 6.55452ZM247.717 6.12478L247.702 5.73447C247.61 5.73814 247.523 5.77375 247.455 5.83509L247.717 6.12478ZM251.729 5.96362L251.745 5.57331C251.734 5.57289 251.724 5.57289 251.713 5.57331L251.729 5.96362ZM243.917 17.9428H243.526C243.526 18.1585 243.701 18.3334 243.917 18.3334V17.9428ZM245.975 17.9428V18.3334C246.191 18.3334 246.366 18.1585 246.366 17.9428H245.975ZM251.729 16.9759L251.711 17.3661C251.723 17.3666 251.735 17.3666 251.747 17.3661L251.729 16.9759ZM245.692 14.6123L245.915 14.9333C246.008 14.8689 246.068 14.7672 246.08 14.6547C246.093 14.5422 246.056 14.4299 245.979 14.3469L245.692 14.6123ZM244.847 13.7002L245.134 13.4348C245.025 13.3168 244.855 13.2778 244.705 13.3365C244.555 13.3951 244.457 13.5394 244.457 13.7002H244.847ZM244.847 15.1976H244.457C244.457 15.3429 244.538 15.4762 244.666 15.5436C244.795 15.611 244.951 15.6014 245.07 15.5186L244.847 15.1976ZM251.729 13.5379L251.705 13.9278C251.722 13.9288 251.739 13.9288 251.756 13.9276L251.729 13.5379ZM249.128 13.3767L248.922 13.7085C248.977 13.7426 249.039 13.7626 249.104 13.7666L249.128 13.3767ZM248.178 12.7858L247.79 12.8282C247.803 12.9475 247.87 13.0542 247.972 13.1176L248.178 12.7858ZM248.072 11.8189V11.4283C247.961 11.4283 247.856 11.4755 247.781 11.5581C247.707 11.6407 247.672 11.751 247.684 11.8613L248.072 11.8189ZM245.553 8.21979L245.935 8.30313C245.96 8.18762 245.931 8.0669 245.857 7.9748C245.783 7.88271 245.671 7.82916 245.553 7.82916V8.21979ZM244.919 8.21979V7.82916C244.821 7.82916 244.725 7.86668 244.653 7.93415L244.919 8.21979ZM244.286 8.81069L244.02 8.52505C243.942 8.59739 243.897 8.69816 243.895 8.8042C243.894 8.91025 243.935 9.01245 244.01 9.08733L244.286 8.81069ZM245.202 9.7239L245.473 10.0055L245.202 9.7239ZM259.542 10.9594H259.932C259.932 10.8531 259.889 10.7514 259.812 10.6778L259.542 10.9594ZM257.641 9.133L257.299 9.32197C257.318 9.35625 257.342 9.38749 257.37 9.41464L257.641 9.133ZM256.216 6.55452L256.558 6.36555C256.537 6.3278 256.51 6.29377 256.478 6.26483L256.216 6.55452ZM255.741 6.12478L256.003 5.83509C255.935 5.77375 255.848 5.73814 255.757 5.73447L255.741 6.12478ZM259.542 17.9428V18.3334C259.757 18.3334 259.932 18.1585 259.932 17.9428H259.542ZM257.483 17.9428H257.092C257.092 18.1585 257.267 18.3334 257.483 18.3334V17.9428ZM257.75 14.6123L257.463 14.3469C257.386 14.4299 257.349 14.5422 257.362 14.6547C257.374 14.7672 257.434 14.8689 257.527 14.9333L257.75 14.6123ZM258.595 13.7002H258.985C258.985 13.5394 258.887 13.3951 258.737 13.3365C258.587 13.2778 258.417 13.3168 258.308 13.4348L258.595 13.7002ZM258.595 15.1976L258.372 15.5186C258.491 15.6014 258.647 15.611 258.776 15.5436C258.904 15.4762 258.985 15.3429 258.985 15.1976H258.595ZM254.093 13.3767L254.12 13.7665C254.184 13.7621 254.245 13.7422 254.3 13.7085L254.093 13.3767ZM255.043 12.7858L255.25 13.1176C255.352 13.0542 255.419 12.9475 255.432 12.8282L255.043 12.7858ZM255.149 11.8189L255.537 11.8613C255.549 11.751 255.514 11.6407 255.44 11.5581C255.366 11.4755 255.26 11.4283 255.149 11.4283V11.8189ZM257.905 8.21979V7.82916C257.787 7.82916 257.675 7.88271 257.601 7.9748C257.527 8.0669 257.498 8.18762 257.523 8.30313L257.905 8.21979ZM258.539 8.21979L258.805 7.93415C258.733 7.86668 258.637 7.82916 258.539 7.82916V8.21979ZM259.172 8.81069L259.448 9.08733C259.523 9.01245 259.564 8.91025 259.563 8.8042C259.561 8.69816 259.516 8.59739 259.438 8.52505L259.172 8.81069ZM258.256 9.7239L257.985 10.0055L258.256 9.7239ZM246.159 9.32197L247.584 6.74349L246.9 6.36555L245.475 8.94403L246.159 9.32197ZM247.504 6.84421L247.979 6.41447L247.455 5.83509L246.98 6.26483L247.504 6.84421ZM247.733 6.51509L251.745 6.35393L251.713 5.57331L247.702 5.73447L247.733 6.51509ZM251.729 6.1639H247.242V6.94515H251.729V6.1639ZM243.917 18.3334H245.975V17.5522H243.917V18.3334ZM246.366 17.9428V16.7073H245.585V17.9428H246.366ZM243.526 10.9594V16.2238H244.307V10.9594H243.526ZM243.526 16.2238V17.9428H244.307V16.2238H243.526ZM246.065 16.327L244.006 15.8435L243.827 16.6041L245.886 17.0875L246.065 16.327ZM245.957 17.0975L251.711 17.3661L251.747 16.5857L245.993 16.3171L245.957 17.0975ZM245.979 14.3469L245.134 13.4348L244.561 13.9656L245.405 14.8777L245.979 14.3469ZM244.457 13.7002V15.1976H245.238V13.7002H244.457ZM245.07 15.5186L245.915 14.9333L245.47 14.2912L244.625 14.8765L245.07 15.5186ZM251.753 13.148L249.152 12.9869L249.104 13.7666L251.705 13.9278L251.753 13.148ZM249.334 13.045L248.384 12.4541L247.972 13.1176L248.922 13.7085L249.334 13.045ZM248.566 12.7434L248.461 11.7765L247.684 11.8613L247.79 12.8282L248.566 12.7434ZM248.072 12.2095H251.729V11.4283H248.072V12.2095ZM247.545 11.542L245.17 11.1122L245.031 11.881L247.406 12.3107L247.545 11.542ZM245.491 11.4966V10.9594H244.71V11.4966H245.491ZM244.71 11.4966V12.1949H245.491V11.4966H244.71ZM245.815 9.16984L245.656 8.95497L245.027 9.41847L245.186 9.63334L245.815 9.16984ZM245.723 9.27005L245.935 8.30313L245.171 8.13645L244.96 9.10338L245.723 9.27005ZM245.553 7.82916H244.919V8.61041H245.553V7.82916ZM244.653 7.93415L244.02 8.52505L244.552 9.09633L245.186 8.50543L244.653 7.93415ZM244.187 11.2411L245.473 10.0055L244.931 9.44226L243.646 10.6778L244.187 11.2411ZM245.473 10.0055L246.088 9.41464L245.546 8.85136L244.931 9.44226L245.473 10.0055ZM244.01 9.08733L244.926 10.0005L245.478 9.44726L244.562 8.53405L244.01 9.08733ZM245.473 8.81874L244.417 8.44271L244.155 9.17867L245.211 9.5547L245.473 8.81874ZM257.983 8.94403L256.558 6.36555L255.874 6.74349L257.299 9.32197L257.983 8.94403ZM256.478 6.26483L256.003 5.83509L255.479 6.41447L255.954 6.84421L256.478 6.26483ZM255.757 5.73447L251.745 5.57331L251.713 6.35393L255.725 6.51509L255.757 5.73447ZM251.729 6.94515H256.216V6.1639H251.729V6.94515ZM259.542 17.5522H257.483V18.3334H259.542V17.5522ZM257.873 17.9428V16.7073H257.092V17.9428H257.873ZM259.151 10.9594V16.2238H259.932V10.9594H259.151ZM259.151 16.2238V17.9428H259.932V16.2238H259.151ZM257.572 17.0875L259.631 16.6041L259.452 15.8435L257.394 16.327L257.572 17.0875ZM257.465 16.3171L251.711 16.5857L251.747 17.3661L257.501 17.0975L257.465 16.3171ZM258.037 14.8777L258.881 13.9656L258.308 13.4348L257.463 14.3469L258.037 14.8777ZM258.204 13.7002V15.1976H258.985V13.7002H258.204ZM258.817 14.8765L257.972 14.2912L257.527 14.9333L258.372 15.5186L258.817 14.8765ZM251.756 13.9276L254.12 13.7665L254.067 12.987L251.702 13.1482L251.756 13.9276ZM254.3 13.7085L255.25 13.1176L254.837 12.4541L253.887 13.045L254.3 13.7085ZM255.432 12.8282L255.537 11.8613L254.761 11.7765L254.655 12.7434L255.432 12.8282ZM255.149 11.4283H251.729V12.2095H255.149V11.4283ZM256.052 12.3107L258.427 11.881L258.288 11.1122L255.913 11.542L256.052 12.3107ZM258.748 11.4966V10.9594H257.967V11.4966H258.748ZM257.967 11.4966V12.1949H258.748V11.4966H257.967ZM258.272 9.63334L258.431 9.41847L257.802 8.95497L257.643 9.16984L258.272 9.63334ZM258.498 9.10338L258.287 8.13645L257.523 8.30313L257.735 9.27005L258.498 9.10338ZM257.905 8.61041H258.539V7.82916H257.905V8.61041ZM258.272 8.50543L258.906 9.09633L259.438 8.52505L258.805 7.93415L258.272 8.50543ZM259.812 10.6778L258.527 9.44226L257.985 10.0055L259.271 11.2411L259.812 10.6778ZM258.527 9.44226L257.912 8.85136L257.37 9.41464L257.985 10.0055L258.527 9.44226ZM258.896 8.53405L257.98 9.44726L258.532 10.0005L259.448 9.08733L258.896 8.53405ZM258.247 9.5547L259.303 9.17867L259.041 8.44271L257.985 8.81874L258.247 9.5547Z" fill="#53565A"/>
<path d="M242.203 23.9328V24.1078C242.203 24.6146 241.951 25.187 241.4 25.4385L241.663 25.8104C242.275 25.537 242.578 24.8188 242.578 24.1078V23.9328H242.203ZM242.308 23.9328V24.1078C242.308 24.7859 242.596 25.4786 243.191 25.7521L243.449 25.3839C242.921 25.1286 242.684 24.5891 242.684 24.1078V23.9328H242.308ZM241.517 23.6083V23.9911H243.355V23.6083H241.517ZM242.199 23.1344V23.8052H242.684V23.1344H242.199ZM243.621 23.0578V26.4339H244.109V23.0578H243.621ZM244 24.3667V24.7677H244.598V24.3667H244ZM247.336 23.5099V23.9073H247.923V23.5099H247.336ZM247.336 24.2208V24.6182H247.923V24.2208H247.336ZM246.989 23.0578V25.0922H247.474V23.0578H246.989ZM244.937 24.5599V24.9536H245.221C245.903 24.9536 246.329 24.9354 246.803 24.8443L246.76 24.4578C246.293 24.5453 245.885 24.5599 245.221 24.5599H244.937ZM244.933 23.2583V23.6411H245.998V23.9109H244.937V24.7969H245.418V24.2719H246.475V23.2583H244.933ZM246.366 25.1505C245.662 25.1505 245.221 25.3911 245.221 25.7958C245.221 26.2005 245.662 26.4339 246.366 26.4339C247.069 26.4339 247.507 26.2005 247.507 25.7958C247.507 25.3911 247.069 25.1505 246.366 25.1505ZM246.366 25.5224C246.803 25.5224 247.033 25.6099 247.033 25.7958C247.033 25.9818 246.803 26.0693 246.366 26.0693C245.928 26.0693 245.699 25.9818 245.699 25.7958C245.699 25.6099 245.928 25.5224 246.366 25.5224ZM250 23.8745V24.2682H250.642V23.8745H250ZM250.511 23.0578V25.063H250.996V23.0578H250.511ZM249.851 25.1359C249.136 25.1359 248.695 25.3802 248.695 25.7885C248.695 26.2005 249.136 26.4375 249.851 26.4375C250.565 26.4375 251.007 26.2005 251.007 25.7885C251.007 25.3802 250.565 25.1359 249.851 25.1359ZM249.851 25.5042C250.292 25.5042 250.525 25.5953 250.525 25.7885C250.525 25.9781 250.292 26.0693 249.851 26.0693C249.413 26.0693 249.18 25.9781 249.18 25.7885C249.18 25.5953 249.413 25.5042 249.851 25.5042ZM248.95 23.3969V23.6083C248.95 24.0422 248.71 24.4906 248.152 24.6802L248.4 25.063C249.045 24.8443 249.344 24.2536 249.344 23.6083V23.3969H248.95ZM249.052 23.3969V23.6083C249.052 24.2099 249.34 24.7714 249.968 24.9792L250.205 24.5964C249.672 24.4177 249.443 24.0057 249.443 23.6083V23.3969H249.052ZM248.283 23.262V23.6484H250.099V23.262H248.283ZM251.528 25.65V26.0437H254.583V25.65H251.528ZM252.807 24.9281V25.7448H253.292V24.9281H252.807ZM251.849 23.2729V25.0302H254.251V23.2729H253.77V23.7906H252.33V23.2729H251.849ZM252.33 24.1698H253.77V24.6437H252.33V24.1698ZM257.898 23.0578V24.8734H258.387V23.0578H257.898ZM256.141 25.0193V26.3974H258.387V25.0193H257.905V25.3328H256.618V25.0193H256.141ZM256.618 25.7047H257.905V26.0109H256.618V25.7047ZM256.549 23.1964C256.024 23.1964 255.63 23.5281 255.63 23.9948C255.63 24.4615 256.024 24.7932 256.549 24.7932C257.074 24.7932 257.464 24.4615 257.464 23.9948C257.464 23.5281 257.074 23.1964 256.549 23.1964ZM256.549 23.5974C256.804 23.5974 256.99 23.7469 256.99 23.9948C256.99 24.2464 256.804 24.3922 256.549 24.3922C256.29 24.3922 256.104 24.2464 256.104 23.9948C256.104 23.7469 256.29 23.5974 256.549 23.5974ZM259.061 24.6656V25.0521H259.32C259.965 25.0521 260.311 25.0411 260.705 24.9682L260.658 24.5854C260.275 24.6547 259.947 24.6656 259.32 24.6656H259.061ZM259.057 23.251V23.6339H260.06V23.9547H259.061V24.9208H259.542V24.3156H260.541V23.251H259.057ZM261.274 23.0615V25.1396H261.759V23.0615H261.274ZM260.734 23.5245V23.9109H261.361V23.5245H260.734ZM260.734 24.2427V24.6292H261.361V24.2427H260.734ZM259.447 25.2927V25.6792H261.274V26.4375H261.759V25.2927H259.447Z" fill="#53565A"/>
<path d="M285.313 13.646L287.917 16.2502L285.313 18.8543" stroke="#53565A" stroke-width="1.04167"/>
<rect x="311.084" y="1.27612" width="6.25" height="6.25" rx="3.125" fill="#53565A"/>
<path d="M315.03 3.21623H313.874C313.869 3.3256 313.86 3.42769 313.845 3.52248C313.83 3.61727 313.813 3.69991 313.794 3.77039C313.867 3.70477 313.951 3.65494 314.045 3.62091C314.143 3.58689 314.242 3.56987 314.344 3.56987C314.429 3.56987 314.513 3.58324 314.596 3.60998C314.679 3.63428 314.755 3.67196 314.826 3.723C314.928 3.80078 315.008 3.90164 315.066 4.0256C315.127 4.14713 315.157 4.28446 315.157 4.43758C315.157 4.57369 315.134 4.69644 315.088 4.80581C315.044 4.91519 314.98 5.00876 314.895 5.08654C314.812 5.16432 314.713 5.22508 314.596 5.26883C314.479 5.31015 314.348 5.33081 314.202 5.33081C314.078 5.33081 313.962 5.31137 313.852 5.27248C313.743 5.23359 313.647 5.18133 313.564 5.11571C313.482 5.04765 313.416 4.96744 313.367 4.87508C313.319 4.78272 313.293 4.68185 313.291 4.57248H313.852C313.86 4.67456 313.895 4.75477 313.958 4.8131C314.024 4.87144 314.112 4.9006 314.224 4.9006C314.333 4.9006 314.423 4.8605 314.494 4.78029C314.564 4.69765 314.6 4.58828 314.6 4.45216C314.6 4.30633 314.567 4.19453 314.501 4.11675C314.436 4.03654 314.343 3.99644 314.224 3.99644C314.124 3.99644 314.042 4.02074 313.976 4.06935C313.913 4.11796 313.872 4.18966 313.852 4.28446L313.316 4.24435L313.429 2.78602H315.03V3.21623Z" fill="white"/>
<path d="M330.094 8.82821C330.094 12.1362 327.412 14.8178 324.104 14.8178C320.796 14.8178 318.115 12.1362 318.115 8.82821C318.115 5.52025 320.796 2.83862 324.104 2.83862C327.412 2.83862 330.094 5.52025 330.094 8.82821ZM319.16 8.82821C319.16 11.5586 321.374 13.7721 324.104 13.7721C326.834 13.7721 329.048 11.5586 329.048 8.82821C329.048 6.09779 326.834 3.88435 324.104 3.88435C321.374 3.88435 319.16 6.09779 319.16 8.82821Z" fill="#53565A"/>
<path d="M336.083 11.3022H334H331.917C331.629 11.3022 331.396 11.0691 331.396 10.7814V6.74495H332.698H334H335.302H336.604V10.7814C336.604 11.0691 336.371 11.3022 336.083 11.3022Z" fill="#53565A"/>
<path d="M324.104 14.8179V14.8179C324.104 16.2561 325.27 17.422 326.708 17.422H330C332.209 17.422 334 15.6312 334 13.422V11.3022M334 11.3022H334.604C335.709 11.3022 336.604 10.4068 336.604 9.30225V6.74495H335.302M334 11.3022H333.396C332.291 11.3022 331.396 10.4068 331.396 9.30225V6.74495H332.698M335.302 6.74495H334H332.698M335.302 6.74495V4.66162M332.698 6.74495V4.66162" stroke="#53565A" stroke-width="1.04167"/>
<path d="M323.02 8.02086L326.703 6.54773L324.125 9.12572L323.02 8.02086Z" fill="#53565A"/>
<path d="M325.23 9.67811L321.547 11.1512L324.125 8.57326L325.23 9.67811Z" fill="#53565A"/>
<path d="M320.863 24.1115V24.5016H321.753V24.1115H320.863ZM319.944 23.3167V23.8052C319.944 24.4469 319.689 25.0995 319.113 25.3656L319.416 25.7557C320.05 25.4385 320.338 24.6547 320.338 23.8052V23.3167H319.944ZM320.046 23.3167V23.8052C320.046 24.6474 320.312 25.3911 320.947 25.6974L321.235 25.3109C320.677 25.063 320.433 24.4469 320.433 23.8052V23.3167H320.046ZM321.512 23.0542V26.4411H321.993V23.0542H321.512ZM324.829 23.0542V26.4411H325.318V23.0542H324.829ZM322.682 23.324V25.6536H324.341V23.324H323.86V24.1443H323.163V23.324H322.682ZM323.163 24.5198H323.86V25.2635H323.163V24.5198ZM327.122 23.251V23.4953C327.122 23.9802 326.703 24.5161 325.941 24.6474L326.149 25.0484C327.024 24.8771 327.545 24.2281 327.545 23.4953V23.251H327.122ZM327.221 23.251V23.4953C327.221 24.2391 327.738 24.8771 328.613 25.0484L328.821 24.6474C328.056 24.5161 327.64 23.9911 327.64 23.4953V23.251H327.221ZM325.872 25.6281V26.0219H328.927V25.6281H325.872ZM332.238 23.0542V26.4411H332.727V23.0542H332.238ZM330.908 23.2911C330.397 23.2911 330.022 23.7578 330.022 24.4943C330.022 25.238 330.397 25.7047 330.908 25.7047C331.418 25.7047 331.794 25.238 331.794 24.4943C331.794 23.7578 331.418 23.2911 330.908 23.2911ZM330.908 23.7323C331.159 23.7323 331.327 23.9984 331.327 24.4943C331.327 24.9974 331.159 25.2672 330.908 25.2672C330.656 25.2672 330.485 24.9974 330.485 24.4943C330.485 23.9984 330.656 23.7323 330.908 23.7323ZM333.963 24.188V24.8078H334.448V24.188H333.963ZM335.151 24.188V24.8078H335.632V24.188H335.151ZM333.277 24.6583V25.0411H336.329V24.6583H333.277ZM334.798 25.2125C334.065 25.2125 333.624 25.4312 333.624 25.8214C333.624 26.2151 334.065 26.4339 334.798 26.4339C335.527 26.4339 335.968 26.2151 335.968 25.8214C335.968 25.4312 335.527 25.2125 334.798 25.2125ZM334.798 25.5771C335.25 25.5771 335.479 25.6536 335.479 25.8214C335.479 25.9927 335.25 26.0693 334.798 26.0693C334.346 26.0693 334.116 25.9927 334.116 25.8214C334.116 25.6536 334.346 25.5771 334.798 25.5771ZM334.805 23.1052C334.057 23.1052 333.584 23.3531 333.584 23.7578C333.584 24.1589 334.057 24.3995 334.805 24.3995C335.549 24.3995 336.026 24.1589 336.026 23.7578C336.026 23.3531 335.549 23.1052 334.805 23.1052ZM334.805 23.4771C335.268 23.4771 335.527 23.5682 335.527 23.7578C335.527 23.9437 335.268 24.0349 334.805 24.0349C334.342 24.0349 334.083 23.9437 334.083 23.7578C334.083 23.5682 334.342 23.4771 334.805 23.4771Z" fill="#53565A"/>
</svg>
